#!OML:ASF F:\VICON\USERDATA\INSTALL\rory3\rory3.ASF
:FULLY-SPECIFIED
:DEGREES
1
root -0.919525187136571 17.206714762624976 -32.30618172817346 6.010073712908136 -2.1114762576226904 -6.517097198961739
lfemur -25.867792562227855 7.189128380992139 -10.752514276748581
ltibia 104.04897562454727
lfoot 7.526892676390128 -13.787389116314344
ltoes 0.3751268852972771
rfemur -22.146596025862955 3.9586877630097073 34.871488019445096
rtibia 48.91779983314685
rfoot -22.272586104191404 -18.484577624701224
rtoes -5.583331882676159
lowerback 17.335682692523097 0.36202914703764955 3.1754949459236137
upperback 0.4907029918952058 1.4043382678675336 3.113585570646487
thorax -9.22738973373727 0.6066166344033586 1.2207281802258363
lowerneck -21.859880411645822 -3.1588426529623708 -1.3040920080536136
upperneck 12.282209800215018 -4.181432117805569 1.7646106781234236
head 7.388487378474906 -1.8849430067700264 0.2728341279815309
lclavicle -9.152774899037e-16 -7.746725268913122e-16
lhumerus -52.44049066434086 -11.167890429591182 98.1634846259434
lradius 97.59629140101308
lwrist 29.294691216269698
lhand -25.807706694410637 2.8378096538577573
lfingers 7.125020000000057
lthumb 0.7315043048727647 32.816309628939216
rclavicle -9.152774899037e-16 -7.746725268913122e-16
rhumerus -37.915499775312725 10.290989889798709 -93.6858928799529
rradius 101.15799055408706
rwrist -7.893617030780158
rhand -21.34318065440365 39.76358867551455
rfingers 7.125020000000057
rthumb 5.04298934952269 9.843588794188534
2
root -0.9317890061270453 17.324412022848094 -31.331782150333865 5.571954954097881 -0.4888466052715284 -6.663796776219657
lfemur -30.741689860728208 6.464100235259378 -10.839514146275679
ltibia 103.34597590225528
lfoot 6.358653516375627 -12.34619095627089
ltoes 3.6952383740466113
rfemur -17.293098699879863 2.814780473019078 35.17218755580786
rtibia 47.04810053192029
rfoot -21.21788684005495 -18.620677362902647
rtoes -9.811888017728762
lowerback 17.85788085583023 0.4099578270595581 3.3343845401664307
upperback -0.10616479043296392 1.6016974463606601 3.491692135353068
thorax -10.19278501941275 0.6932278125434462 1.4985170665925795
lowerneck -20.121188618355596 -3.606788719900065 -2.1042191406363067
upperneck 12.451709478599588 -4.573049839616211 1.6711811700430879
head 7.181708780583103 -2.1334995592609327 0.34485693639815823
lclavicle -9.152775047593846e-16 -7.74672521926077e-16
lhumerus -55.90338823253486 -11.191290403288308 99.59538266989424
lradius 99.38169097891091
lwrist 30.60499029616588
lhand -26.364804952681382 3.074189436191249
lfingers 7.125020000000057
lthumb 0.19338104711956272 33.05380941027504
rclavicle -9.152775047593846e-16 -7.74672521926077e-16
rhumerus -38.574299274536514 10.736489623461129 -93.76499280667649
rradius 104.98298963551225
rwrist -11.383394129617727
rhand -22.00757681581512 40.1601882299789
rfingers 7.125020000000057
rthumb 4.4014731900422905 10.225888364573713
3
root -0.9290660463169451 17.499707942279805 -30.321582588004723 5.286055764049838 0.2593803899406123 -7.012275772012712
lfemur -34.54018775530014 6.248950785506399 -11.123313720664095
ltibia 100.7699769198607
lfoot 4.135515114853144 -10.758092983772258
ltoes -2.9559545918505066
rfemur -12.36150141692568 2.6397608876547043 35.465587103426245
rtibia 44.984601303123696
rfoot -19.016888375691252 -17.169180154972096
rtoes -13.724584441480614
lowerback 18.068780114048288 0.9455052516754118 4.187212362295569
upperback -0.8950652505904828 2.524543605016821 3.2287845240044986
thorax -11.152680331946314 1.056404366334112 0.48508412936355083
lowerneck -18.114298090976444 -4.074284615186086 -1.7175653586926167
upperneck 12.450909480117522 -5.301235603482437 1.3894226535418
head 6.843831071637927 -2.506134390771278 0.14236328656002328
lclavicle -9.152775166225642e-16 -7.746725338426448e-16
lhumerus -59.62218562102415 -12.210789257315112 100.32998166639284
lradius 100.8409906339049
lwrist 31.643689566781855
lhand -25.210508561509375 2.546389922206936
lfingers 7.125020000000057
lthumb 1.3082214376730932 32.52210989980661
rclavicle -9.152775166225642e-16 -7.746725338426448e-16
rhumerus -40.07089813692013 9.603300300926978 -94.24489236210822
rradius 109.10198864633341
rwrist -12.47609322122231
rhand -20.173587411798543 39.8304886003599
rfingers 7.125020000000057
rthumb 6.172252589042002 9.940408685385757
4
root -0.891693597920737 17.7129029794894 -29.236483058126183 5.439125330404001 -0.24946124667696207 -7.2864449819432195
lfemur -36.763186523138266 6.873529188140484 -11.887412574752148
ltibia 96.27427869581082
lfoot -0.9779212084918003 -8.21278623332804
ltoes -14.590392287616936
rfemur -7.817443920457818 3.2997293241358223 35.305787349815404
rtibia 42.611402190073036
rfoot -14.866191271632065 -14.669784962755944
rtoes -18.336180226430685
lowerback 16.287086380681124 1.760211812588619 4.831610716692138
upperback -0.6219905527683025 3.580549209397264 3.108405617709032
thorax -9.759407135731333 1.5521996616956777 -0.23175899687012536
lowerneck -18.918894293243255 -4.441851387871178 -1.9507816081751266
upperneck 13.180408095937844 -5.742643035647379 1.4156125156484478
head 7.23046844995734 -2.7147414973657753 0.1115967955770954
lclavicle -9.152774501461083e-16 -7.746724676394981e-16
lhumerus -61.30108444202418 -11.80598971233223 100.38898158579575
lradius 101.95999036935223
lwrist 31.841089428165894
lhand -27.599401092801767 1.6660007328991036
lfingers 7.125020000000057
lthumb -0.9990550922072443 31.643410708818053
rclavicle -9.152774501461083e-16 -7.746724676394981e-16
rhumerus -39.09659887751858 10.053090032024741 -94.18539241722766
rradius 111.7849880020103
rwrist -12.708993027605288
rhand -20.990382692714977 40.94878734407514
rfingers 7.125020000000057
rthumb 5.383627310249407 11.037187452864224
